<svg width="54" height="16" viewBox="0 0 54 16" fill="none" xmlns="http://www.w3.org/2000/svg">
<path d="M5.08 0.719999C6.37333 0.719999 7.44 0.879999 8.28 1.2C9.13333 1.50667 9.77333 1.98 10.2 2.62C10.6267 3.24667 10.84 4.03333 10.84 4.98C10.84 5.59333 10.7267 6.14 10.5 6.62C10.2733 7.1 9.96667 7.52 9.58 7.88C9.20667 8.24 8.77333 8.54 8.28 8.78L12.46 15H8.64L5.42 9.64H4.08V15H0.68V0.719999H5.08ZM4.94 3.4H4.08V6.98H4.94C5.48667 6.98 5.94 6.92 6.3 6.8C6.66 6.66667 6.92667 6.46 7.1 6.18C7.28667 5.88667 7.38 5.52667 7.38 5.1C7.38 4.71333 7.29333 4.4 7.12 4.16C6.94667 3.90667 6.68 3.72 6.32 3.6C5.96 3.46667 5.5 3.4 4.94 3.4ZM22.8794 10.86C22.8794 11.6733 22.6794 12.4133 22.2794 13.08C21.8794 13.7333 21.2794 14.2533 20.4794 14.64C19.6794 15.0133 18.6727 15.2 17.4594 15.2C16.8994 15.2 16.3794 15.1667 15.8994 15.1C15.4194 15.0333 14.9594 14.94 14.5194 14.82C14.0927 14.6867 13.6727 14.52 13.2594 14.32V11.22C13.9794 11.5533 14.7127 11.8333 15.4594 12.06C16.2194 12.2867 16.946 12.4 17.6394 12.4C18.0794 12.4 18.4327 12.3467 18.6994 12.24C18.9794 12.12 19.1794 11.9667 19.2994 11.78C19.4327 11.58 19.4994 11.3533 19.4994 11.1C19.4994 10.7933 19.3927 10.5333 19.1794 10.32C18.9794 10.0933 18.6794 9.88 18.2794 9.68C17.8794 9.46667 17.3927 9.22667 16.8194 8.96C16.3927 8.77333 15.9727 8.56 15.5594 8.32C15.1594 8.06667 14.7927 7.78 14.4594 7.46C14.1394 7.12667 13.8794 6.73333 13.6794 6.28C13.4927 5.81333 13.3994 5.26667 13.3994 4.64C13.3994 3.74667 13.606 3 14.0194 2.4C14.446 1.78667 15.0394 1.32 15.7994 0.999999C16.5594 0.679999 17.4527 0.519999 18.4794 0.519999C19.3194 0.519999 20.0927 0.613333 20.7994 0.799999C21.506 0.986666 22.1927 1.22667 22.8594 1.52L21.7794 4.18C21.1394 3.9 20.5394 3.68667 19.9794 3.54C19.4327 3.38 18.8994 3.3 18.3794 3.3C18.0194 3.3 17.7194 3.35333 17.4794 3.46C17.2394 3.55333 17.0594 3.69333 16.9394 3.88C16.8194 4.05333 16.7594 4.26 16.7594 4.5C16.7594 4.78 16.8527 5.02667 17.0394 5.24C17.226 5.44 17.5194 5.64667 17.9194 5.86C18.3194 6.07333 18.846 6.33333 19.4994 6.64C20.206 6.96 20.8127 7.30667 21.3194 7.68C21.826 8.05333 22.2127 8.49333 22.4794 9C22.746 9.49333 22.8794 10.1133 22.8794 10.86Z" fill="#124E3E"/>
<path d="M31.4289 15L28.2289 4.22H28.1489C28.1756 4.48667 28.2022 4.87333 28.2289 5.38C28.2556 5.87333 28.2822 6.40667 28.3089 6.98C28.3356 7.54 28.3489 8.06667 28.3489 8.56V15H25.3089V0.719999H29.9089L33.0889 11.28H33.1689L36.4489 0.719999H41.0289V15H37.8689V8.48C37.8689 8.02667 37.8756 7.52667 37.8889 6.98C37.9156 6.42 37.9356 5.89333 37.9489 5.4C37.9756 4.89333 37.9956 4.50667 38.0089 4.24H37.9289L34.6289 15H31.4289ZM53.2309 10.86C53.2309 11.6733 53.0309 12.4133 52.6309 13.08C52.2309 13.7333 51.6309 14.2533 50.8309 14.64C50.0309 15.0133 49.0243 15.2 47.8109 15.2C47.2509 15.2 46.7309 15.1667 46.2509 15.1C45.7709 15.0333 45.3109 14.94 44.8709 14.82C44.4443 14.6867 44.0243 14.52 43.6109 14.32V11.22C44.3309 11.5533 45.0643 11.8333 45.8109 12.06C46.5709 12.2867 47.2976 12.4 47.9909 12.4C48.4309 12.4 48.7843 12.3467 49.0509 12.24C49.3309 12.12 49.5309 11.9667 49.6509 11.78C49.7843 11.58 49.8509 11.3533 49.8509 11.1C49.8509 10.7933 49.7443 10.5333 49.5309 10.32C49.3309 10.0933 49.0309 9.88 48.6309 9.68C48.2309 9.46667 47.7443 9.22667 47.1709 8.96C46.7443 8.77333 46.3243 8.56 45.9109 8.32C45.5109 8.06667 45.1443 7.78 44.8109 7.46C44.4909 7.12667 44.2309 6.73333 44.0309 6.28C43.8443 5.81333 43.7509 5.26667 43.7509 4.64C43.7509 3.74667 43.9576 3 44.3709 2.4C44.7976 1.78667 45.3909 1.32 46.1509 0.999999C46.9109 0.679999 47.8043 0.519999 48.8309 0.519999C49.6709 0.519999 50.4443 0.613333 51.1509 0.799999C51.8576 0.986666 52.5443 1.22667 53.2109 1.52L52.1309 4.18C51.4909 3.9 50.8909 3.68667 50.3309 3.54C49.7843 3.38 49.2509 3.3 48.7309 3.3C48.3709 3.3 48.0709 3.35333 47.8309 3.46C47.5909 3.55333 47.4109 3.69333 47.2909 3.88C47.1709 4.05333 47.1109 4.26 47.1109 4.5C47.1109 4.78 47.2043 5.02667 47.3909 5.24C47.5776 5.44 47.8709 5.64667 48.2709 5.86C48.6709 6.07333 49.1976 6.33333 49.8509 6.64C50.5576 6.96 51.1643 7.30667 51.6709 7.68C52.1776 8.05333 52.5643 8.49333 52.8309 9C53.0976 9.49333 53.2309 10.1133 53.2309 10.86Z" fill="#52E0BC"/>
</svg>
